<svg xmlns="http://www.w3.org/2000/svg" viewBox="0 0 128 128">
  <defs>
    <linearGradient id="wood" x1="22" y1="11" x2="103" y2="116" gradientUnits="userSpaceOnUse">
      <stop offset="0" stop-color="#ffe08a"/>
      <stop offset=".28" stop-color="#d88937"/>
      <stop offset=".67" stop-color="#8f4a21"/>
      <stop offset="1" stop-color="#482313"/>
    </linearGradient>
    <linearGradient id="leaf" x1="33" y1="10" x2="82" y2="111" gradientUnits="userSpaceOnUse">
      <stop offset="0" stop-color="#78f09a"/>
      <stop offset=".52" stop-color="#2aa85f"/>
      <stop offset="1" stop-color="#15583b"/>
    </linearGradient>
    <filter id="glow" x="-30%" y="-30%" width="160%" height="160%">
      <feGaussianBlur stdDeviation="3" result="b"/>
      <feMerge>
        <feMergeNode in="b"/>
        <feMergeNode in="SourceGraphic"/>
      </feMerge>
    </filter>
  </defs>
  <path d="M80 9C43 28 25 63 39 116" fill="none" stroke="#2a170e" stroke-width="17" stroke-linecap="round"/>
  <path d="M80 9C43 28 25 63 39 116" fill="none" stroke="url(#wood)" stroke-width="12" stroke-linecap="round"/>
  <path d="M72 15c-13 19-22 38-24 58 11-15 24-21 40-24-12-7-15-18-16-34Z" fill="url(#leaf)" opacity=".86"/>
  <path d="M81 12c23 24 25 69-40 104" fill="none" stroke="#f7ecd0" stroke-width="3.4" stroke-linecap="round" opacity=".95"/>
  <path d="M28 69h72" stroke="#ffe6a8" stroke-width="4" stroke-linecap="round" filter="url(#glow)"/>
  <path d="M100 69l-15-8 4 8-4 8Z" fill="#ffe6a8"/>
  <path d="M35 68c9-3 20-4 33-1" fill="none" stroke="#ffe6a8" stroke-width="2" opacity=".85"/>
  <path d="M71 10c6 4 10 7 15 13M35 101c7 3 13 4 19 3" fill="none" stroke="#fff4c8" stroke-width="3" stroke-linecap="round" opacity=".58"/>
</svg>
